<svg height="90" viewBox="0 0 90 90" width="90" xmlns="http://www.w3.org/2000/svg"><path d="m115.258269 63.176681v-2.5797072c.000348-.4344993-.176596-.8503516-.489963-1.151507-.313368-.3011553-.736057-.4615683-1.170438-.4441882-17.4599508.8630492-31.3793275 14.8927027-32.0957987 32.3500603-.0019221.3785914.152113.741295.4259349 1.0028979.2738219.261603.6432939.3990458 1.021613.3800379h2.6609004c.8214087.0073924 1.5056872-.6275061 1.5592876-1.4467636.7538766-14.3878193 12.2561393-25.883994 26.6515778-26.6374716 1.096291-.1382935 1.44753-.7393387 1.44753-1.4680395zm-23.7192654 29.5841952h2.5225335c.8086484.0023223 1.4819796-.6195993 1.5433223-1.4254942.699035-9.8054125 8.5301166-17.5914774 18.3442466-18.238796.770973-.0540356 1.354804-.7182066 1.309163-1.4893155v-2.5690692c-.009517-.4308997-.193033-.8396259-.508787-1.1331724-.315755-.2935464-.736892-.4469451-1.16758-.4252899-12.67813.838608-22.7762423 10.9291017-23.6181514 23.6003317-.0216667.4304603.1318132.851374.4255151 1.1669615.293702.3155875.7026446.4990061 1.1337725.5085185zm23.7192764-15.2495335v2.5797072c-.007123.7712644-.594442 1.4133049-1.362392 1.4893155-5.12553.6273357-9.169031 4.6555464-9.8134 9.7762925-.0978.7876784-.759969 1.3837688-1.553966 1.3988928h-2.229834c-1.213371 0-1.9424577-.7872096-1.8519871-1.6967559.809053-7.9858946 7.1288281-14.3001012 15.1192361-15.1059144.436073-.037327.867767.1102364 1.18964.4066478.321873.2964115.504289.7143791.502703 1.1518145zm29.578558 37.6850013c-.729087 0-1.33045-.351053-1.468817-1.446764-.74456-14.4057574-12.264652-25.9174554-26.678187-26.6587472-.819692-.053572-1.454926-.7374884-1.44753-1.5584623v-2.659492c-.019018-.3781188.118498-.7473953.380239-1.0210722.261742-.273677.624637-.4276306 1.003429-.4257095 17.468677.713415 31.508798 14.6261473 32.372514 32.0788102.01872.429568-.136803.848508-.431336 1.16191-.294534.313402-.703148.49474-1.133273.502932zm-29.578569-23.7173495c.009465-.4318721.193712-.8414571.510643-1.1351646.316931-.2937076.739463-.4464399 1.171046-.4232977 12.674167.840856 22.768672 10.9277438 23.61283 23.5950128.023155.431355-.129658.853663-.423521 1.170426-.293864.316764-.703665.500914-1.135766.510373h-2.57043c-.777357.045394-1.444415-.547498-1.490104-1.324427-.652435-9.802915-8.438375-17.6233249-18.243133-18.3238997-.806322-.0613102-1.428573-.734285-1.426243-1.5425054zm15.252281 23.7120305h-2.586395c-.771673-.007109-1.414053-.594117-1.490104-1.36166-.628195-5.124541-4.661261-9.166433-9.786792-9.808206-.788095-.097748-1.384501-.759567-1.399645-1.553144v-2.5105601c-.001719-.4384455.181416-.8573385.504498-1.15393.323081-.2965914.756218-.4434424 1.193168-.4045323 7.990408.8058132 14.310183 7.1200194 15.119236 15.1059144.037347.435843-.110295.867308-.406863 1.189011-.296568.321702-.714757.504021-1.152424.502436zm-67.3633533-22.4407933c.7290867 0 1.3304502.3510529 1.468817 1.4467636.74528 14.4115437 12.2743867 25.9253597 26.6941525 26.6587477.8196914.053572 1.454926.737488 1.4475298 1.558462v2.659492c.0190179.378119-.1184977.747395-.3802392 1.021072s-.6246372.427631-1.003429.42571c-17.4686769-.713415-31.5087977-14.626147-32.3725139-32.0788104-.0187202-.4295681.1368031-.8485081.4313365-1.16191.2945334-.3134018.703148-.4947398 1.133273-.502932zm29.5945339 23.6960733c-.0094641.431872-.1937119.841457-.5106428 1.135165-.3169309.293707-.7394625.44644-1.1710463.423297-12.6664343-.842491-22.7560021-10.919898-23.607508-23.5790554-.0231545-.4313553.1296587-.8536633.4235218-1.1704264s.703665-.5009134 1.1357658-.5103725h2.5704298c.7773567-.0453939 1.444415.5474976 1.4901042 1.324427.6495745 9.8031143 8.4332466 17.6257983 18.2378111 18.3292183.8063217.061311 1.4285726.734285 1.4262426 1.542506zm-15.2682463-23.6960733h2.5810733c.7716728.0071088 1.4140534.5941173 1.4901042 1.3616599.6281946 5.1245412 4.6612611 9.1664324 9.7867916 9.8082064.7880955.097748 1.3845016.759567 1.3996336 1.553143v2.51588c-.0029837.43365-.1866154.846448-.5067527 1.139163s-.7478268.438874-1.1802582.403342c-7.990408-.805813-14.3101829-7.12002-15.1192358-15.1059144-.0325011-.4313582.1158421-.8568119.4095333-1.1745568.2936913-.3177449.7063055-.4991917 1.1391107-.5009231zm15.2629245 52.0888093c0-.7287.3512388-1.329746 1.4475298-1.468039 14.4135344-.741292 25.9336274-12.25299 26.6781874-26.658748.0536-.819257.737879-1.454156 1.559287-1.446763h2.660901c.378319-.019008.747791.118435 1.021613.380038.273821.261603.427857.624306.425934 1.002898-.716687 17.459295-14.639089 31.489672-32.1011196 32.35006-.4297956.01871-.8489575-.136731-1.1625253-.431108-.3135678-.294378-.4950018-.702776-.5031983-1.132673zm23.7299092-29.578869c.432101.009459.841903.193609 1.135766.510372s.446676.739071.423522 1.170427c-.844158 12.667268-10.938663 22.754156-23.61283 23.595012-.4315838.023143-.8541154-.12959-1.1710463-.423297-.3169308-.293708-.5011786-.703293-.5106427-1.135165v-2.569069c-.045418-.776945.5477874-1.443651 1.3251283-1.489316 9.8083057-.64923 17.6351327-8.428783 18.3389257-18.228158.061342-.805895.734673-1.427816 1.543322-1.425487zm-23.719276 15.244208v-2.579708c.0071229-.771264.5944423-1.413304 1.3623913-1.489315 5.1255308-.627336 9.1690317-4.655546 9.8134007-9.776292.0978-.787679.759969-1.383769 1.553966-1.398893h2.229834c1.213371 0 1.942457.787209 1.851987 1.696756-.809053 7.985894-7.128828 14.300101-15.119236 15.105914-.4360737.037327-.8677674-.110236-1.1896403-.406648-.3218729-.296411-.5042887-.714379-.5027027-1.151814zm.0000104 14.334661c0-.7287.3512388-1.329746 1.4475298-1.468039 14.4135348-.741292 25.9336268-12.25299 26.6781868-26.658748.053601-.819257.737879-1.454156 1.559288-1.446763h2.6609c.378319-.019008.747791.118435 1.021613.380038s.427857.624306.425935 1.002898c-.716687 17.459295-14.639089 31.489672-32.10112 32.35006-.4297956.01871-.8489575-.136731-1.1625253-.431108-.3135678-.294378-.4950018-.702776-.5031983-1.132673zm23.7299096-29.578869c.432101.009459.841903.193609 1.135766.510372s.446676.739071.423521 1.170427c-.844158 12.667268-10.938662 22.754156-23.6128294 23.595012-.4315838.023143-.8541154-.12959-1.1710463-.423297-.3169308-.293708-.5011786-.703293-.5106427-1.135165v-2.569069c-.045418-.776945.5477874-1.443651 1.3251283-1.489316 9.8083061-.64923 17.6351321-8.428783 18.3389251-18.228158.061343-.805895.734674-1.427816 1.543322-1.425487zm-23.72992 15.244208v-2.579708c.0071229-.771264.5944423-1.413304 1.3623913-1.489315 5.1255308-.627336 9.1690317-4.655546 9.8134007-9.776292.0978-.787679.759969-1.383769 1.553966-1.398893h2.229834c1.213371 0 1.942457.787209 1.851987 1.696756-.809053 7.985894-7.128828 14.300101-15.119236 15.105914-.4360737.037327-.8677674-.110236-1.1896403-.406648-.3218729-.296411-.5042887-.714379-.5027027-1.151814z" fill="#ff5c00" transform="translate(-59 -59)"/></svg>